<?xml version="1.0" encoding="UTF-8" standalone="no"?><svg xmlns:svg="http://www.w3.org/2000/svg" xmlns="http://www.w3.org/2000/svg" version="1.1" style="overflow:visible" viewBox="-250 -250 500 500" height="500px" width="500px"><rect fill-opacity="0" fill="rgb(0,0,0)" height="500" width="500" y="-250" x="-250" /><svg version="1.1" y="-250" x="-250" viewBox="-250 -250 500 500" height="500px" width="500px" style="overflow:visible"><g transform="rotate(0,0,0)" stroke-linejoin="round" fill="#fff"><path stroke-linecap="butt" stroke-linejoin="round" stroke-width="6" stroke-opacity="1" stroke="rgb(68,68,68)" fill="rgb(105,104,119)" d="m-46.169001 58.197999c-9.5265 36.409 13.811 62.721 46.166 62.721s55.693-26.313 46.166-62.721l-45.8775-4.70021z" /><path stroke-linecap="butt" stroke-linejoin="round" stroke-width="6" stroke-opacity="1" stroke="rgb(68,68,68)" fill="rgb(92,90,130)" d="m-26.469 53.718c7.54 11.83-61.034 83.509-77.244 87.665c-14.86 3.81-99.195-86.03-93.751-98.76c5.307-12.4 113.95-11.13 141.37-53.68z" /><path stroke-linecap="butt" stroke-linejoin="round" stroke-width="6" stroke-opacity="1" stroke="rgb(68,68,68)" fill="rgb(92,90,130)" d="m26.471 53.718c-7.54 11.83 61.034 83.509 77.244 87.665c14.854 3.8082 99.192-86.037 93.748-98.761c-5.3071-12.404-113.95-11.129-141.37-53.685z" /><path stroke-linecap="butt" stroke-linejoin="round" stroke-width="6" stroke-opacity="1" stroke="rgb(68,68,68)" fill="rgb(105,104,119)" d="m24.360999 49.988v64.858c0 13.474-10.864 24.322-24.36 24.322c-13.495 0-24.36-10.847-24.36-24.322v-64.858001z" /><path stroke-linecap="butt" stroke-linejoin="round" stroke-width="6" stroke-opacity="1" stroke="rgb(68,68,68)" fill="rgb(92,90,130)" d="m0.001-141.552001c-40.794 0-73.865 41.073-73.865 91.74s33.07 112.33 73.865 112.33c40.794 0 73.865-61.668 73.865-112.33c0-50.667-33.07-91.74-73.865-91.74zm0 38.983c32.003 0 57.947 32.338 57.947 72.228s-25.944 88.442-57.947 88.442s-57.947-48.552-57.947-88.442s25.944-72.228 57.947-72.228z" /><path stroke-linecap="butt" stroke-linejoin="round" stroke-width="6" stroke-opacity="1" stroke="rgb(68,68,68)" fill="rgb(247,110,110)" d="m0.001-109.942c36.983 0 65.328 36.517 65.328 79.598c0 21.54-6.8016 44.646-18.056 63.025c-11.255 18.379-27.532 32.787-47.272 32.787s-36.017-14.408-47.272-32.787s-18.056-41.485-18.056-63.025c0-43.081 28.345-79.598 65.328-79.598zm0 14.74c-27.023 0-50.565 28.158-50.565 64.858c0 18.35 6.1702 39.466 15.888 55.335s22.414 25.737 34.677 25.737s24.959-9.8673 34.677-25.737c9.7178-15.869 15.888-36.986 15.888-55.335c0-36.7-23.542-64.858001-50.565-64.858001z" /><path stroke-linecap="butt" stroke-linejoin="round" stroke-width="6" stroke-opacity="1" stroke="rgb(68,68,68)" fill="rgb(255,255,255)" d="m-57.749-33.202c0-2.8581 2.3046-5.159 5.1672-5.159h105.51c2.8626 0 5.1672 2.3009 5.1672 5.159s-2.3046 5.159-5.1672 5.159h-105.51c-2.8626 0-5.1672-2.3009-5.1672-5.159z" /><path stroke-linecap="butt" stroke-linejoin="round" stroke-width="6" stroke-opacity="1" stroke="rgb(68,68,68)" fill="rgb(255,255,255)" d="m-55.979001-11.072001c0-2.8581 2.3046-5.159 5.1672-5.159h101.96c2.8626 0 5.1672 2.3009 5.1672 5.159s-2.3046 5.159-5.1672 5.159h-101.96c-2.8626 0-5.1672-2.3009-5.1672-5.159z" /><path stroke-linecap="butt" stroke-linejoin="round" stroke-width="6" stroke-opacity="1" stroke="rgb(68,68,68)" fill="rgb(255,255,255)" d="m-53.969-55.322c0-2.8581 2.3046-5.159 5.1672-5.159h97.936c2.8626 0 5.1672 2.3009 5.1672 5.159s-2.3046 5.159-5.1672 5.159l-97.936-0.00001c-2.8626 0-5.1672-2.3009-5.1672-5.159z" /><path stroke-linecap="butt" stroke-linejoin="round" stroke-width="6" stroke-opacity="1" stroke="rgb(68,68,68)" fill="rgb(255,255,255)" d="m-49.089 11.057999c0-2.8581 2.3046-5.159 5.1672-5.159h88.181c2.8626 0 5.1672 2.3009 5.1672 5.159s-2.3046 5.159-5.1672 5.159h-88.181c-2.8626 0-5.1672-2.3009-5.1672-5.159z" /><path stroke-linecap="butt" stroke-linejoin="round" stroke-width="6" stroke-opacity="1" stroke="rgb(68,68,68)" fill="rgb(255,255,255)" d="m43.011-77.452c0 2.8581-2.3046 5.159-5.1672 5.159h-75.354c-2.8626 0-5.1672-2.3009-5.1672-5.159s2.3046-5.159 5.1672-5.159h75.354c2.8626 0 5.1672 2.3009 5.1672 5.159z" /><path stroke-linecap="butt" stroke-linejoin="round" stroke-width="6" stroke-opacity="1" stroke="rgb(68,68,68)" fill="rgb(255,255,255)" d="m-36.619 33.187998c0-2.8581 2.3046-5.159 5.1672-5.159h63.246c2.8626 0 5.1672 2.3009 5.1672 5.159s-2.3046 5.159-5.1672 5.159h-63.246c-2.8626 0-5.1672-2.3009-5.1672-5.159z" /><path stroke-linecap="butt" stroke-linejoin="round" stroke-width="6" stroke-opacity="1" stroke="rgb(68,68,68)" fill="rgb(255,255,255)" d="m0.161-102.302h0.0158c2.8581 0 5.1591 2.301 5.1591 5.1591v149.91c0 2.8581-2.301 5.1591-5.1591 5.1591h-0.015801c-2.8581 0-5.1591-2.301-5.1591-5.1591v-149.91c0-2.8581 2.301-5.1591 5.1591-5.1591z" /><path stroke-linecap="butt" stroke-linejoin="round" stroke="none" fill="rgb(146,145,154)" d="m-10.729001 73.017999c-1.2931 0-2.5873 0.49547-3.5781 1.4863c-1.9817 1.9817-1.9817 5.1726 0 7.1543l7.1543 7.1543l-7.1543 7.1543c-1.9817 1.9817-1.9817 5.1726 0 7.1543s5.1726 1.9817 7.1543 0l7.1543-7.1543l7.1543 7.1543c1.9817 1.9817 5.1726 1.9817 7.1543 0s1.9817-5.1726 0-7.1543l-7.1543-7.1543l7.1543-7.1543c1.9817-1.9817 1.9817-5.1726 0-7.1543s-5.1726-1.9817-7.1543 0l-7.1543 7.1543l-7.1543-7.1543c-0.99086-0.99086-2.283-1.4863-3.5762-1.4863z" /></g></svg></svg>